<?xml version="1.0" encoding="UTF-8" standalone="no"?>
<svg
   width="2038.4255"
   height="2320.3982"
   viewBox="0 0 539.33342 613.93869"
   version="1.1"
   id="svg5"
   inkscape:version="1.1-alpha (2a16015, 2021-02-21)"
   sodipodi:docname="background.svg"
   xmlns:inkscape="http://www.inkscape.org/namespaces/inkscape"
   xmlns:sodipodi="http://sodipodi.sourceforge.net/DTD/sodipodi-0.dtd"
   xmlns="http://www.w3.org/2000/svg"
   xmlns:svg="http://www.w3.org/2000/svg">
  <sodipodi:namedview
     id="namedview7"
     pagecolor="#ffffff"
     bordercolor="#666666"
     borderopacity="1.0"
     objecttolerance="10.0"
     gridtolerance="10.0"
     guidetolerance="10.0"
     inkscape:pageshadow="2"
     inkscape:pageopacity="0.0"
     inkscape:pagecheckerboard="0"
     inkscape:document-units="px"
     showgrid="false"
     inkscape:zoom="0.34045882"
     inkscape:cx="1379.0214"
     inkscape:cy="838.57425"
     inkscape:window-width="1366"
     inkscape:window-height="705"
     inkscape:window-x="-8"
     inkscape:window-y="-8"
     inkscape:window-maximized="1"
     inkscape:current-layer="layer1"
     fit-margin-top="0"
     fit-margin-left="0"
     fit-margin-right="0"
     fit-margin-bottom="0" />
  <defs
     id="defs2" />
  <g
     inkscape:label="Calque 1"
     inkscape:groupmode="layer"
     id="layer1"
     transform="translate(12.4342,13.988476)">
    <rect
       style="fill:#241921;fill-opacity:1;stroke:none;stroke-width:1.46908;stroke-linejoin:bevel;stroke-dashoffset:13.6"
       id="rect2190"
       width="539.33344"
       height="613.93866"
       x="-12.4342"
       y="-13.988476"
       rx="0.57565659"
       ry="0.99827337" />
    <g
       id="g875"
       transform="matrix(2.8892363,0,0,2.8892363,356.71362,163.88537)">
      <path
         id="path934"
         style="fill:none;fill-opacity:1;stroke:#584453;stroke-width:8.00001;stroke-linecap:round;stroke-linejoin:round;stroke-dashoffset:13.6;stroke-opacity:1;paint-order:fill markers stroke"
         d="M 90,72.154297 V 166.07617 C 71.610038,175.46074 60.02477,194.35393 60,215 c 10e-7,30.37566 24.624339,55 55,55 9.11567,0 17.71338,-2.21764 25.28307,-6.14284 m 18.56665,-15.65271 C 165.84761,238.97741 170,227.47363 170,215 m 0,0 c -2.3e-4,-8.23974 -1.84206,-16.20211 -5.22351,-23.39401 m 0,0 C 159.67561,180.75713 151.07127,171.6615 140,166.01172 v -60 m 0,-15.153935 V 72.154297"
         transform="scale(0.26458334)"
         sodipodi:nodetypes="cccscccccccccc" />
      <g
         id="g865">
        <path
           id="path1400"
           style="fill:#392634;fill-opacity:1;stroke-width:2.11667;stroke-linecap:round;stroke-linejoin:round;stroke-dashoffset:13.6;paint-order:fill markers stroke"
           d="m 42.333334,56.885418 c 0,6.57564 -5.33061,11.90625 -11.90625,11.90625 -6.57564,0 -11.90625,-5.33061 -11.90625,-11.90625 0,-2.142316 0.565806,-4.15248 1.556136,-5.889211 10.350114,-3.371206 15.641781,5.889211 22.256364,5.889211 z"
           sodipodi:nodetypes="csscc" />
        <path
           id="path1400-7"
           style="fill:#432b3c;fill-opacity:1;stroke-width:2.11667;stroke-linecap:round;stroke-linejoin:round;stroke-dashoffset:13.6;paint-order:fill markers stroke"
           d="m 42.333334,56.885418 c 0,6.57564 -5.33061,11.90625 -11.90625,11.90625 -6.57564,0 -11.90625,-5.33061 -11.90625,-11.90625 0,-2.142316 0.565806,-4.15248 1.556136,-5.889211 7.704281,3.243378 9.027197,5.889211 18.690623,5.081195 1.170268,0.492863 2.345493,0.808016 3.565741,0.808016 z"
           sodipodi:nodetypes="cssccc" />
      </g>
      <g
         id="g861">
        <circle
           style="fill:none;stroke:#382232;stroke-width:1.5875;stroke-linecap:round;stroke-linejoin:round;stroke-miterlimit:4;stroke-dasharray:none;stroke-dashoffset:13.6;stroke-opacity:1;paint-order:fill markers stroke"
           id="path1105"
           cx="28.919958"
           cy="33.274117"
           r="2.6458335" />
        <circle
           style="fill:none;stroke:#382232;stroke-width:1.5875;stroke-linecap:round;stroke-linejoin:round;stroke-miterlimit:4;stroke-dasharray:none;stroke-dashoffset:13.6;stroke-opacity:1;paint-order:fill markers stroke"
           id="path1105-9"
           cx="32.683662"
           cy="45.637054"
           r="1.8399127" />
        <circle
           style="fill:none;stroke:#382232;stroke-width:1.5875;stroke-linecap:round;stroke-linejoin:round;stroke-miterlimit:4;stroke-dasharray:none;stroke-dashoffset:13.6;stroke-opacity:1;paint-order:fill markers stroke"
           id="path1105-9-4"
           cx="33.855816"
           cy="12.64748"
           r="3.5285087" />
      </g>
    </g>
  </g>
</svg>
